<svg xmlns="http://www.w3.org/2000/svg"
    xmlns:xlink="http://www.w3.org/1999/xlink" width="899.5px" height="1003.5px">
    <path fill-rule="evenodd" stroke="rgb(255, 255, 255)" stroke-width="1px" stroke-dasharray="7, 7" stroke-linecap="butt" stroke-linejoin="miter" fill="none" d="M1.500,4.499 C1.500,4.499 103.307,-24.942 131.500,101.498 C159.692,227.938 200.307,268.059 265.500,276.499 C330.692,284.938 355.307,233.058 347.500,195.498 C339.692,157.938 222.307,109.059 289.500,83.499 C356.692,57.938 523.668,107.935 612.500,100.498 C694.500,93.633 792.872,134.329 733.582,221.322 C621.441,385.861 230.946,163.751 388.327,465.435 C434.316,553.590 654.386,464.753 679.500,453.499 C878.015,364.541 996.211,481.437 787.500,727.499 C722.762,803.823 358.863,866.358 389.975,705.737 C421.660,542.165 628.076,563.252 698.500,693.499 C892.463,1052.226 321.275,1089.916 328.500,845.499 "/>
</svg>