<svg xmlns="http://www.w3.org/2000/svg" width="2061.5px" height="571.5px">
    <path fill-rule="evenodd" stroke="rgb(255, 255, 255)" stroke-width="1px" stroke-dasharray="7, 7" stroke-linecap="butt" stroke-linejoin="miter" fill="none" d="M1.500,4.499 C1.500,4.499 103.307,-24.941 131.500,101.499 C159.692,227.939 200.307,268.059 265.500,276.499 C330.692,284.939 355.307,233.059 347.500,195.499 C339.692,157.939 222.307,109.059 289.500,83.499 C356.692,57.939 523.668,107.936 612.500,100.499 C694.500,93.634 780.500,120.059 737.500,198.499 C694.500,276.938 536.307,458.059 723.500,526.499 C910.693,594.939 959.167,563.892 979.500,520.499 C997.558,481.960 1092.307,298.059 1169.500,389.499 C1246.692,480.939 919.500,415.059 949.500,252.499 C979.500,89.939 1247.307,36.059 1308.500,179.500 C1369.693,322.938 1166.307,403.059 1234.500,505.500 C1302.692,607.939 1655.307,591.059 1694.500,428.499 C1733.692,265.939 1619.307,59.059 1806.500,179.500 C1993.692,299.939 2036.308,98.059 2059.500,4.499 "/>
</svg>